<svg width="14" height="16" viewBox="0 0 14 16" fill="none" xmlns="http://www.w3.org/2000/svg">
<path d="M13 5.5L8.5 1.555C8.08749 1.18604 7.55345 0.982056 7 0.982056C6.44655 0.982056 5.91252 1.18604 5.5 1.555L1 5.5C0.761779 5.71306 0.571677 5.97442 0.442356 6.26669C0.313035 6.55895 0.247462 6.87542 0.250002 7.195V13.75C0.250002 14.3467 0.487055 14.919 0.909012 15.341C1.33097 15.763 1.90327 16 2.5 16H11.5C12.0967 16 12.669 15.763 13.091 15.341C13.5129 14.919 13.75 14.3467 13.75 13.75V7.1875C13.7515 6.86918 13.6854 6.55416 13.5561 6.26327C13.4268 5.97237 13.2373 5.71222 13 5.5ZM8.5 14.5H5.5V10.75C5.5 10.5511 5.57902 10.3603 5.71967 10.2197C5.86032 10.079 6.05109 10 6.25 10H7.75C7.94891 10 8.13968 10.079 8.28033 10.2197C8.42098 10.3603 8.5 10.5511 8.5 10.75V14.5ZM12.25 13.75C12.25 13.9489 12.171 14.1397 12.0303 14.2803C11.8897 14.421 11.6989 14.5 11.5 14.5H10V10.75C10 10.1533 9.76295 9.58097 9.34099 9.15901C8.91904 8.73706 8.34674 8.5 7.75 8.5H6.25C5.65326 8.5 5.08097 8.73706 4.65901 9.15901C4.23706 9.58097 4 10.1533 4 10.75V14.5H2.5C2.30109 14.5 2.11032 14.421 1.96967 14.2803C1.82902 14.1397 1.75 13.9489 1.75 13.75V7.1875C1.75014 7.08102 1.77295 6.97578 1.81692 6.87879C1.86088 6.7818 1.925 6.69529 2.005 6.625L6.505 2.6875C6.64187 2.56727 6.81782 2.50095 7 2.50095C7.18218 2.50095 7.35814 2.56727 7.495 2.6875L11.995 6.625C12.075 6.69529 12.1391 6.7818 12.1831 6.87879C12.2271 6.97578 12.2499 7.08102 12.25 7.1875V13.75Z" fill="white"/>
</svg>
